<svg data-v-423bf9ae="" xmlns="http://www.w3.org/2000/svg" viewBox="0 0 775 90"
     class="iconLeft"><!----><!----><!---->
  <g data-v-423bf9ae="" id="32cf1566-064e-4c97-be02-0a2e0c05f0a3" fill="#DDBA2E"
     transform="matrix(4.464285850524902,0,0,4.464285850524902,103.16963195800781,-2.3214316368103027)">
    <path
      d="M2.81 14.35L4.38 14.35L8.89 4.58L7.69 4.58L5.49 9.46L3.79 13.22L3.72 13.22L3.23 9.46L2.62 4.58L1.53 4.58ZM13.76 14.35L14.85 14.35L16.06 7.13L14.97 7.13L14.76 8.39L14.71 8.39C14.41 7.45 13.66 6.96 12.60 6.96C10.05 6.96 9.18 9.79 9.18 11.72C9.18 13.57 9.98 14.52 11.44 14.52C12.71 14.52 13.44 13.78 14 12.64L14.04 12.64ZM11.82 13.55C10.81 13.55 10.29 12.91 10.29 11.83C10.29 11.65 10.30 11.45 10.35 11.20L10.51 10.19C10.74 8.85 11.54 7.92 12.92 7.92C14 7.92 14.74 8.50 14.57 9.51L14.31 11.10C14.20 11.77 13.87 12.35 13.51 12.75C13.01 13.31 12.42 13.55 11.82 13.55ZM19.29 14.35L20.38 14.35L21.01 10.58C21.15 9.74 21.66 9.16 21.84 8.95C22.27 8.44 22.79 8.22 23.63 8.22L24.86 8.22L25.05 7.13L23.95 7.13C22.57 7.13 21.84 7.91 21.34 9.06L21.27 9.06L21.59 7.13L18.47 7.13L18.31 8.06L20.34 8.06ZM29.96 5.52C30.52 5.52 30.81 5.26 30.88 4.84C30.91 4.68 30.94 4.55 30.94 4.44C30.94 4.14 30.73 3.88 30.13 3.88C29.57 3.88 29.27 4.13 29.20 4.55C29.18 4.72 29.15 4.84 29.15 4.96C29.15 5.25 29.36 5.52 29.96 5.52ZM29.01 14.52C29.64 14.52 30.16 14.18 31.47 12.96L32.75 11.79L32.09 11.17L29.33 13.55L29.01 13.43L30.23 7.13L26.50 7.13L26.35 8.06L28.95 8.06L28.00 12.99C27.97 13.16 27.93 13.37 27.93 13.55C27.93 14.11 28.31 14.52 29.01 14.52ZM37.45 17.32C38.28 17.32 38.65 16.62 38.78 15.85L40.24 7.13L36.16 7.13L36.01 8.06L38.99 8.06L37.62 16.28L37.37 16.34L35.15 13.99L34.41 14.66L35.32 15.65C36.53 16.97 36.88 17.32 37.45 17.32ZM40.00 5.52C40.56 5.52 40.85 5.26 40.92 4.84C40.95 4.68 40.98 4.55 40.98 4.44C40.98 4.14 40.77 3.88 40.17 3.88C39.61 3.88 39.31 4.13 39.24 4.55C39.21 4.72 39.19 4.84 39.19 4.96C39.19 5.25 39.40 5.52 40.00 5.52ZM54.42 9.52L56.56 14.35L57.82 14.35L55.26 8.72L59.43 4.58L57.97 4.58L54.87 7.67L52.99 9.66L52.93 9.66L53.79 4.58L52.64 4.58L51.00 14.35L52.15 14.35L52.67 11.26ZM64.16 14.35L65.25 14.35L66.46 7.13L65.37 7.13L65.16 8.39L65.11 8.39C64.81 7.45 64.06 6.96 63 6.96C60.45 6.96 59.58 9.79 59.58 11.72C59.58 13.57 60.38 14.52 61.84 14.52C63.11 14.52 63.84 13.78 64.40 12.64L64.44 12.64ZM62.22 13.55C61.21 13.55 60.69 12.91 60.69 11.83C60.69 11.65 60.70 11.45 60.75 11.20L60.91 10.19C61.14 8.85 61.94 7.92 63.32 7.92C64.40 7.92 65.14 8.50 64.97 9.51L64.71 11.10C64.60 11.77 64.27 12.35 63.91 12.75C63.41 13.31 62.82 13.55 62.22 13.55ZM69.15 7.13L67.47 17.15L68.56 17.15L69.24 13.09L69.29 13.09C69.59 14.03 70.34 14.52 71.40 14.52C73.95 14.52 74.82 11.69 74.82 9.76C74.82 7.91 74.02 6.96 72.56 6.96C71.29 6.96 70.56 7.70 70 8.83L69.96 8.83L70.24 7.13ZM71.08 13.55C70 13.55 69.26 12.98 69.43 11.97L69.69 10.37C69.80 9.70 70.13 9.13 70.49 8.72C70.99 8.16 71.58 7.92 72.18 7.92C73.19 7.92 73.71 8.57 73.71 9.65C73.71 9.83 73.70 10.02 73.65 10.28L73.49 11.28C73.26 12.63 72.46 13.55 71.08 13.55ZM80.36 5.52C80.92 5.52 81.21 5.26 81.28 4.84C81.31 4.68 81.34 4.55 81.34 4.44C81.34 4.14 81.13 3.88 80.53 3.88C79.97 3.88 79.67 4.13 79.60 4.55C79.58 4.72 79.55 4.84 79.55 4.96C79.55 5.25 79.76 5.52 80.36 5.52ZM79.41 14.52C80.04 14.52 80.56 14.18 81.87 12.96L83.15 11.79L82.49 11.17L79.73 13.55L79.41 13.43L80.63 7.13L76.90 7.13L76.75 8.06L79.35 8.06L78.40 12.99C78.37 13.16 78.33 13.37 78.33 13.55C78.33 14.11 78.71 14.52 79.41 14.52ZM87.49 14.52C88.05 14.52 88.55 14.28 89.91 13.05L91.36 11.73L90.73 11.12L87.86 13.55L87.51 13.44L89.33 3.99L85.65 3.99L85.50 4.93L88.05 4.93L86.48 13.08C86.45 13.20 86.44 13.40 86.44 13.52C86.44 14.10 86.73 14.52 87.49 14.52ZM96.56 7.85L97.59 7.85L98.24 3.99L97.20 3.99ZM104.55 14.52C106.48 14.52 107.79 13.59 107.79 12.10C107.79 10.67 106.60 10.44 105.67 10.29L104.65 10.12C104.06 10.02 103.53 9.87 103.53 9.17C103.53 8.39 104.19 7.88 105.43 7.88C106.65 7.88 107.24 8.36 107.49 8.74L108.26 8.06C107.72 7.38 106.82 6.96 105.56 6.96C103.85 6.96 102.47 7.73 102.47 9.25C102.47 10.60 103.56 10.95 104.61 11.10L105.66 11.26C106.25 11.34 106.71 11.54 106.71 12.21C106.71 13.08 105.92 13.59 104.65 13.59C103.56 13.59 102.84 13.22 102.28 12.52L101.47 13.16C102.10 14.03 103.15 14.52 104.55 14.52ZM119.88 4.58L118.24 14.35L121.98 14.35C123.79 14.35 125.03 12.87 125.03 11.24C125.03 10.08 124.39 9.55 123.52 9.28L123.54 9.23C124.61 8.93 125.38 8.12 125.38 6.83C125.38 5.46 124.56 4.58 123.03 4.58ZM121.74 13.34L119.55 13.34L120.15 9.77L122.33 9.77C123.30 9.77 123.86 10.21 123.86 10.92C123.86 11.10 123.83 11.27 123.80 11.44L123.73 11.86C123.56 12.87 122.86 13.34 121.74 13.34ZM122.30 8.82L120.30 8.82L120.83 5.59L122.84 5.59C123.68 5.59 124.21 5.89 124.21 6.64C124.21 6.78 124.19 6.92 124.17 7.08L124.10 7.50C123.96 8.34 123.35 8.82 122.30 8.82ZM129.49 14.52C130.05 14.52 130.55 14.28 131.91 13.05L133.36 11.73L132.73 11.12L129.86 13.55L129.51 13.44L131.33 3.99L127.65 3.99L127.50 4.93L130.05 4.93L128.48 13.08C128.45 13.20 128.44 13.40 128.44 13.52C128.44 14.10 128.73 14.52 129.49 14.52ZM138.11 14.52C140.24 14.52 141.90 12.77 141.90 10.01C141.90 8.20 140.95 6.96 139.08 6.96C136.96 6.96 135.30 8.71 135.30 11.47C135.30 13.27 136.26 14.52 138.11 14.52ZM138.17 13.57C137.09 13.57 136.40 13.01 136.40 11.79C136.40 11.62 136.42 11.41 136.47 11.07L136.61 10.23C136.85 8.81 137.68 7.91 139.03 7.91C140.11 7.91 140.80 8.47 140.80 9.69C140.80 9.86 140.78 10.07 140.73 10.40L140.59 11.24C140.35 12.67 139.52 13.57 138.17 13.57ZM145.77 17.32C147.57 17.32 148.89 16.48 149.25 14.35L150.46 7.13L149.37 7.13L149.16 8.39L149.11 8.39C148.81 7.45 148.06 6.96 147.00 6.96C144.51 6.96 143.60 9.67 143.60 11.54C143.60 13.30 144.38 14.28 145.87 14.28C147.14 14.28 147.90 13.57 148.44 12.40L148.50 12.40L148.20 14.14C147.94 15.74 147.15 16.35 145.84 16.35C144.96 16.35 144.37 16.07 143.99 15.60L143.23 16.32C143.75 16.97 144.61 17.32 145.77 17.32ZM146.24 13.31C145.24 13.31 144.72 12.68 144.72 11.54C144.72 11.34 144.75 11.17 144.79 10.92L144.91 10.16C145.14 8.82 145.96 7.92 147.32 7.92C148.40 7.92 149.14 8.50 148.97 9.51L148.75 10.88C148.62 11.66 148.22 12.22 147.95 12.52C147.43 13.09 146.85 13.31 146.24 13.31Z"></path>
  </g><!---->
  <g data-v-423bf9ae="" id="da5c03f5-9ce9-44d8-a6c7-6d047e2f0b17"
     transform="matrix(2.8125,0,0,2.8125,0,0)" stroke="none" fill="#DDBA2E">
    <path
      d="M9.663 12.988L12.675 16l-6.338 6.337 3.326 3.326L16 19.325l3.012 3.012-6.337 6.338L16 32l6.337-6.337 3.326-3.326L32 16l-3.325-3.325-6.338 6.337L19.325 16l6.338-6.337-3.326-3.326L16 12.675l-3.012-3.012 6.337-6.338L16 0 9.663 6.337 6.337 9.663 0 16l3.325 3.325z"></path>
  </g><!---->
</svg>
