<?xml version="1.0" standalone="no"?>
<!DOCTYPE svg PUBLIC "-//W3C//DTD SVG 20010904//EN"
 "http://www.w3.org/TR/2001/REC-SVG-20010904/DTD/svg10.dtd">
<svg version="1.0" xmlns="http://www.w3.org/2000/svg"
 width="200.000000pt" height="200.000000pt" viewBox="0 0 200.000000 200.000000"
 preserveAspectRatio="xMidYMid meet">
<metadata>
Created by potrace 1.16, written by Peter Selinger 2001-2019
</metadata>
<g transform="translate(0.000000,200.000000) scale(0.100000,-0.100000)"
fill="#000000" stroke="none">
<path d="M0 1000 l0 -1000 1000 0 1000 0 0 1000 0 1000 -1000 0 -1000 0 0
-1000z m1067 498 l53 -52 -102 -103 -102 -103 49 -50 49 -50 103 102 103 102
55 -54 55 -54 -102 -103 -102 -103 49 -50 49 -50 103 102 103 103 52 -53 53
-52 -263 -262 -262 -263 -52 53 -53 52 105 105 104 105 -49 50 -49 50 -101
-100 c-55 -55 -105 -100 -111 -100 -5 0 -32 23 -59 50 l-49 50 104 105 104
105 -49 50 -49 50 -106 -105 -106 -105 -54 55 -55 55 260 260 c143 143 262
260 265 260 2 0 28 -24 57 -52z"/>
</g>
</svg>
