<?xml version="1.0" standalone="no"?>
<!DOCTYPE svg PUBLIC "-//W3C//DTD SVG 20010904//EN"
 "http://www.w3.org/TR/2001/REC-SVG-20010904/DTD/svg10.dtd">
<svg version="1.0" xmlns="http://www.w3.org/2000/svg"
 width="700.000000pt" height="700.000000pt" viewBox="0 0 700.000000 700.000000"
 preserveAspectRatio="xMidYMid meet">
<metadata>
Created by potrace 1.11, written by Peter Selinger 2001-2013
</metadata>
<g transform="translate(0.000000,700.000000) scale(0.100000,-0.100000)"
fill="#000000" stroke="none">
<path d="M0 3500 l0 -3500 3500 0 3500 0 0 3500 0 3500 -3500 0 -3500 0 0
-3500z m1253 252 l27 -28 -55 -54 -55 -54 27 -28 27 -28 56 55 56 55 29 -30
29 -30 -54 -55 -54 -55 24 -25 24 -25 56 55 56 55 29 -30 29 -31 -141 -141
-142 -142 -26 24 c-14 13 -25 28 -25 34 0 6 23 34 52 63 l52 53 -24 25 -24 25
-58 -57 -58 -57 -30 29 -30 29 57 58 57 58 -27 27 -27 27 -58 -57 -58 -57 -29
30 -29 31 139 139 c77 77 142 140 145 140 4 0 18 -13 33 -28z m1397 -82 c0
-15 -7 -20 -25 -20 -24 0 -34 18 -18 33 15 15 43 7 43 -13z m288 3 c-4 -22
-48 -31 -48 -10 0 19 10 27 32 27 13 0 18 -6 16 -17z m1152 -3 c0 -15 -7 -20
-25 -20 -24 0 -34 18 -18 33 15 15 43 7 43 -13z m230 18 c0 -2 -11 -61 -25
-132 -14 -71 -23 -131 -20 -134 2 -2 22 10 45 28 55 44 65 28 13 -21 -44 -40
-79 -50 -89 -24 -4 8 3 66 15 128 12 61 21 115 21 120 0 4 -16 7 -35 7 -33 0
-43 8 -28 23 6 6 103 10 103 5z m250 -15 c0 -49 -14 -93 -28 -93 -11 0 -13 8
-8 38 3 20 6 45 6 55 0 9 7 17 15 17 8 0 15 -8 15 -17z m950 15 c0 -2 -11 -61
-25 -132 -14 -71 -23 -131 -21 -133 3 -3 23 10 45 28 56 44 66 27 14 -22 -44
-40 -79 -50 -89 -24 -4 8 3 66 15 128 12 61 21 115 21 120 0 4 -16 7 -35 7
-24 0 -35 5 -35 15 0 12 13 15 55 15 30 0 55 -1 55 -2z m-3661 -141 c8 -65 17
-114 21 -110 4 4 29 57 55 116 43 97 66 129 81 115 2 -3 -25 -66 -60 -141 -51
-107 -69 -137 -85 -137 -22 0 -25 9 -41 150 -6 52 -14 103 -17 113 -4 14 0 18
14 15 15 -3 20 -21 32 -121z m1436 66 c-4 -31 -9 -63 -12 -72 -3 -9 28 17 68
57 41 39 83 72 94 72 15 0 6 -14 -39 -59 l-58 -59 35 -78 c21 -46 32 -81 26
-83 -16 -5 -30 13 -59 78 l-26 61 -26 -28 c-15 -15 -29 -45 -33 -69 -4 -27
-12 -43 -21 -43 -18 0 -18 13 6 150 11 63 20 118 20 123 0 4 7 7 16 7 14 0 15
-8 9 -57z m2037 40 c26 -23 23 -69 -6 -96 -24 -22 -24 -23 -5 -35 27 -17 24
-65 -5 -99 -21 -24 -32 -28 -95 -31 -39 -2 -71 0 -71 4 0 5 9 69 21 142 l22
132 60 0 c42 0 66 -5 79 -17z m-3159 -68 c13 -13 16 -13 21 0 8 22 39 19 32
-2 -2 -10 -10 -52 -17 -94 -6 -42 -15 -82 -19 -89 -11 -18 -30 -3 -23 18 5 13
1 12 -19 -5 -32 -30 -82 -30 -102 -1 -29 41 -16 120 26 166 25 26 79 30 101 7z
m207 -6 l0 -20 26 20 c31 25 74 28 74 6 0 -10 -10 -15 -28 -15 -56 0 -77 -31
-97 -142 -3 -24 -11 -38 -20 -38 -8 0 -15 1 -15 3 0 1 7 40 15 87 8 47 15 86
15 88 0 1 -13 2 -30 2 -29 0 -38 9 -23 23 3 4 24 7 45 7 32 0 38 -3 38 -21z
m250 12 c0 -5 -7 -43 -16 -86 -9 -42 -13 -79 -10 -82 3 -3 21 9 41 26 53 46
67 27 16 -21 -54 -51 -86 -50 -86 2 1 19 5 59 9 88 l8 52 -36 0 c-34 0 -44 8
-29 23 10 10 103 8 103 -2z m286 -8 c-2 -10 -12 -65 -21 -123 -19 -124 -28
-150 -53 -150 -25 0 -98 75 -82 85 7 4 26 -6 46 -26 24 -23 35 -28 38 -18 4
13 36 200 36 213 0 3 -18 6 -40 6 -29 0 -40 4 -40 15 0 12 13 15 61 15 53 0
60 -2 55 -17z m697 2 c13 -13 16 -13 21 0 3 8 12 15 19 15 12 0 12 -12 0 -82
-19 -120 -22 -128 -39 -128 -11 0 -14 6 -8 23 l6 22 -24 -22 c-32 -30 -82 -30
-102 -1 -29 41 -16 120 26 166 25 26 79 30 101 7z m160 -12 c3 -16 2 -32 -3
-38 -15 -20 -21 -86 -9 -101 12 -15 56 -19 75 -6 37 25 48 124 15 142 -13 7
-28 7 -45 0 -16 -6 -26 -6 -26 0 0 15 36 30 70 30 26 0 33 -6 45 -34 16 -37
12 -82 -12 -128 -23 -47 -78 -62 -120 -33 -20 14 -21 13 -28 -40 -4 -38 -11
-55 -21 -55 -18 0 -18 3 8 158 22 130 39 166 51 105z m297 18 c0 -5 -7 -43
-16 -86 -9 -42 -13 -79 -10 -82 3 -3 21 9 41 26 53 46 67 27 16 -21 -56 -53
-86 -50 -85 7 0 22 4 61 8 88 l8 47 -36 0 c-34 0 -44 8 -29 23 10 10 103 8
103 -2z m775 -4 c26 -20 4 -29 -35 -16 -39 14 -80 -1 -80 -30 0 -21 18 -31 56
-31 27 0 64 -32 64 -55 0 -9 -11 -27 -25 -40 -18 -19 -35 -25 -67 -25 -49 0
-96 26 -79 43 7 7 15 6 25 -2 21 -17 85 -16 103 1 22 23 6 45 -40 52 -22 4
-47 12 -54 18 -21 17 -16 65 9 82 28 20 98 21 123 3z m956 -8 c18 -18 21 -30
17 -77 -4 -47 -10 -60 -37 -84 -51 -46 -119 -36 -139 22 -15 43 -4 96 28 130
35 38 98 42 131 9z m212 6 c13 -13 16 -13 21 0 3 8 12 15 19 15 12 0 11 -18
-4 -105 -10 -58 -21 -115 -24 -125 -15 -49 -96 -76 -146 -49 -32 17 -12 28 39
22 55 -6 75 10 86 67 l6 34 -20 -22 c-46 -49 -120 -17 -120 51 0 36 25 96 48
113 23 18 77 17 95 -1z"/>
<path d="M5216 3618 c-3 -13 -6 -33 -6 -46 0 -21 4 -23 42 -20 35 2 45 8 55
30 20 41 8 58 -42 58 -36 0 -44 -4 -49 -22z"/>
<path d="M5196 3498 c-3 -13 -6 -35 -6 -50 0 -26 3 -28 38 -28 44 0 67 15 75
49 9 36 -9 51 -58 51 -36 0 -44 -4 -49 -22z"/>
<path d="M2103 3565 c-29 -21 -48 -90 -34 -122 7 -16 19 -23 39 -23 37 0 58
24 71 79 8 37 7 45 -10 62 -23 23 -38 24 -66 4z"/>
<path d="M3543 3565 c-29 -21 -48 -90 -34 -122 7 -16 19 -23 39 -23 39 0 63
30 70 86 4 38 1 50 -13 61 -24 17 -36 16 -62 -2z"/>
<path d="M5694 3555 c-21 -22 -25 -33 -22 -78 3 -52 3 -52 39 -55 45 -4 70 22
76 81 9 73 -43 102 -93 52z"/>
<path d="M5936 3558 c-32 -30 -44 -98 -21 -122 24 -23 43 -20 76 13 49 49 36
131 -20 131 -5 0 -21 -10 -35 -22z"/>
</g>
</svg>
